<svg width="1200" height="630" viewBox="0 0 1200 630" fill="none" xmlns="http://www.w3.org/2000/svg">
  <rect width="1200" height="630" rx="32" fill="#F5F5F4"/>
  <rect x="56" y="56" width="1088" height="518" rx="28" fill="#FFFFFF" stroke="#D6D3D1" stroke-width="2"/>
  <circle cx="156" cy="156" r="56" fill="#111827"/>
  <path d="M126 166C126 146.118 142.118 130 162 130H182C201.882 130 218 146.118 218 166V214H126V166Z" fill="#60A5FA"/>
  <path d="M187 135C187 151.569 173.569 165 157 165C140.431 165 127 151.569 127 135C127 118.431 140.431 105 157 105C173.569 105 187 118.431 187 135Z" fill="#E5E7EB"/>
  <text x="248" y="158" fill="#111111" font-family="Arial, sans-serif" font-size="54" font-weight="700">
    Raditya Zacky Nugroho
  </text>
  <text x="248" y="214" fill="#525252" font-family="Arial, sans-serif" font-size="28">
    Pelajar SMA | Tech Explorer
  </text>
  <text x="80" y="342" fill="#111111" font-family="Arial, sans-serif" font-size="44" font-weight="700">
    Personal portfolio built with Astro
  </text>
  <text x="80" y="396" fill="#57534E" font-family="Arial, sans-serif" font-size="24">
    Profil, proyek pembelajaran, catatan, dan detail aktivitas dalam satu halaman yang ringan.
  </text>
  <rect x="80" y="462" width="262" height="56" rx="28" fill="#111111"/>
  <text x="114" y="497" fill="#FFFFFF" font-family="Arial, sans-serif" font-size="24" font-weight="600">
    radityazcky.my.id
  </text>
</svg>
